<svg width="65" height="25" viewBox="0 0 65 25" fill="none" xmlns="http://www.w3.org/2000/svg">
<path d="M9.05408 13.5136V21.9113H11.3222V0H7.92002C4.51785 0 1.6827 2.31658 1.6827 6.85327C1.6827 10.1352 2.91122 11.8726 4.80149 12.8379L0.832031 21.8148H3.47825L7.16407 13.4171H9.05408V13.5136ZM9.05408 11.5832H7.82556C5.84083 11.5832 4.13974 10.4249 4.13974 6.95001C4.13974 3.28217 5.93529 2.02714 7.82556 2.02714H9.05408V11.5832ZM34.4762 19.9807H33.2477V6.46734H26.2541V7.81859C26.2541 11.8726 26.0652 16.699 24.742 19.9807H23.7968V25H25.876V21.9113H32.3025V24.9035H34.3817C34.4762 24.9035 34.4762 19.9807 34.4762 19.9807ZM44.5882 20.8495L44.0212 19.0156C43.4542 19.4018 42.4146 20.0774 41.0916 20.0774C39.2016 20.0774 38.2565 18.2435 38.2565 14.7686H44.5882V13.4173C44.5882 8.20504 42.9816 6.27438 40.4301 6.27438C37.2169 6.27438 35.8939 9.84573 35.8939 14.8651C35.8939 19.5947 37.7839 22.1045 40.9027 22.1045C42.4146 22.1043 43.6431 21.6216 44.5882 20.8495ZM20.1113 6.46734V13.0312H16.6146V6.46734H14.3463V21.9113H16.7088V14.9616H20.2055V21.9113H22.4736V6.46734H20.1113ZM53.2826 21.9113H55.8344L51.5815 13.7065L55.3618 6.46708H52.9992L49.4081 13.6101V6.46734H47.0455V21.9113H49.4081V14.1892L53.2826 21.9113ZM61.3157 22.1043C62.7334 22.1043 63.6783 21.6216 64.4345 20.946L63.8675 19.2085C63.3004 19.6912 62.4498 20.1739 61.3157 20.1739C59.4257 20.1739 58.575 17.9538 58.575 14.0927C58.575 10.2317 59.8036 8.30126 61.4102 8.30126C62.3553 8.30126 63.3002 8.78392 63.8672 9.36307L64.1509 7.14297C63.4894 6.75678 62.7332 6.37086 61.4102 6.37086C57.9135 6.37086 56.0233 9.45955 56.0233 14.2859C56.1177 19.4982 58.1025 22.1043 61.3157 22.1043ZM30.9793 19.9807H27.0101C28.2386 16.6987 28.4278 11.9691 28.4278 8.68718V8.39748H31.074V19.9804H30.9793V19.9807ZM40.4299 8.20478C41.7528 8.20478 42.2254 10.1352 42.2254 12.7415H38.3507C38.4454 10.0387 39.0124 8.20478 40.4299 8.20478Z" fill="black"/>
</svg>
