<svg width="73" height="23" viewBox="0 0 73 23" fill="none" xmlns="http://www.w3.org/2000/svg">
<path d="M6.27988 0C2.57164 0 0.384766 4.42321 0.384766 11.4019C0.384766 18.3806 2.4766 22.8038 6.27988 22.8038C8.18139 22.8038 9.51267 21.8208 9.89282 21.3293L9.41738 20.1498C8.75187 20.8378 7.80099 21.6243 6.27963 21.6243C3.3322 21.526 1.81083 17.4961 1.81083 11.3036C1.81083 5.1112 3.42723 1.278 6.27963 1.278C7.51562 1.278 8.56153 2.06423 9.13201 3.04723L9.51242 1.57274C8.9422 0.786237 7.89627 0 6.27988 0ZM39.8433 22.8035C42.4106 22.8035 44.4072 19.7565 44.4072 14.5471C44.4072 9.23941 42.4104 6.48718 39.8433 6.48718C37.2761 6.48718 35.2795 9.53415 35.2795 14.7436C35.2795 20.1498 37.2761 22.8035 39.8433 22.8035ZM39.8433 21.624C38.0369 21.624 36.6105 19.5598 36.6105 14.6453C36.6105 9.92739 38.0369 7.76491 39.8433 7.76491C41.6498 7.76491 43.0761 9.82915 43.0761 14.6453C43.0761 19.3636 41.6498 21.624 39.8433 21.624ZM72.9313 7.86342V6.68394H64.5642V7.86342H68.0822V22.2138H69.5085V7.86342H72.9313ZM15.7879 21.8208C14.3616 21.8208 13.411 20.543 13.411 18.3806C13.411 15.6283 14.647 14.4489 17.1192 14.4489H18.7356V18.7736C18.1649 20.3463 17.2143 21.8208 15.7879 21.8208ZM19.1158 22.607H20.4468C20.2567 22.0173 20.1614 20.8378 20.1614 19.7565V11.2051C20.1614 8.05992 18.7351 6.68367 16.2631 6.68367C14.5517 6.68367 13.3157 7.46991 12.6502 8.25641L13.0306 9.63239C13.7911 8.55115 14.9321 7.96141 16.2634 7.96141C17.8798 7.96141 18.8307 8.9444 18.8307 11.4016V13.3673H17.2143C13.8864 13.3673 12.175 15.1366 12.175 18.4785C12.175 21.329 13.6013 23 15.5979 23C17.1192 23 18.1651 22.017 18.9257 20.5428C18.8304 21.624 19.0207 22.2138 19.1158 22.607ZM59.1448 21.8208C57.7185 21.8208 56.7679 20.543 56.7679 18.3806C56.7679 15.6283 58.0039 14.4489 60.4761 14.4489H62.0925V18.7736C61.5218 20.3463 60.5709 21.8208 59.1448 21.8208ZM62.5677 22.607H63.8987C63.7087 22.0173 63.6134 20.8378 63.6134 19.7565V11.2051C63.6134 8.05992 62.187 6.68367 59.715 6.68367C58.0036 6.68367 56.7676 7.46991 56.1021 8.25641L56.4825 9.63239C57.2431 8.55115 58.384 7.96141 59.7153 7.96141C61.3317 7.96141 62.2826 8.9444 62.2826 11.4016V13.3673H60.6662C57.3383 13.3673 55.6269 15.1366 55.6269 18.4785C55.6269 21.329 57.0532 23 59.0498 23C60.5711 23 61.6171 22.017 62.3776 20.5428C62.2823 21.624 62.3774 22.2138 62.5677 22.607ZM27.3878 21.0343H28.5288L30.8107 11.7949C31.0961 10.8119 31.1911 9.92739 31.3812 8.84615H31.4762C31.4762 9.92739 31.3812 11.0086 31.4762 12.2864L31.8566 22.9018H33.283L32.7125 7.17517H30.906L28.5291 16.5128C28.2437 17.5941 28.0536 18.5771 28.0536 19.4615H27.9586C27.8635 18.4785 27.7685 17.4958 27.4831 16.5128L25.1062 7.17517H23.2997L22.7292 22.9018H23.9652L24.3456 12.2864C24.4407 10.9104 24.3456 9.9274 24.3456 8.9444H24.4407C24.6307 9.9274 24.726 10.8119 25.0111 11.8931L27.3878 21.0343ZM47.735 14.7439L52.9643 22.902H54.4857L49.1611 14.4489L54.2003 7.17517H52.774L47.7347 14.5471V7.17517H46.3084V22.9018H47.7347L47.735 14.7439Z" fill="black"/>
</svg>
